<mxfile host="app.diagrams.net" agent="Mozilla/5.0 (X11; Linux x86_64) AppleWebKit/537.36 (KHTML, like Gecko) Chrome/134.0.0.0 Safari/537.36" version="26.2.4">
  <diagram name="Page-1" id="ROQkGCMC_LZZNuc-J2Hh">
    <mxGraphModel dx="2820" dy="1168" grid="1" gridSize="10" guides="1" tooltips="1" connect="1" arrows="1" fold="1" page="1" pageScale="1" pageWidth="850" pageHeight="1100" math="0" shadow="0">
      <root>
        <mxCell id="0" />
        <mxCell id="1" parent="0" />
        <mxCell id="DSx34_BCbyzCJCPrqBiv-1" value="" style="shape=hexagon;perimeter=hexagonPerimeter2;whiteSpace=wrap;html=1;fixedSize=1;" parent="1" vertex="1">
          <mxGeometry x="-360" y="380" width="560" height="410" as="geometry" />
        </mxCell>
        <mxCell id="l7raoQd2dg0srGS7qnQP-5" value="" style="shape=parallelogram;perimeter=parallelogramPerimeter;whiteSpace=wrap;html=1;fixedSize=1;" vertex="1" parent="1">
          <mxGeometry x="-235" y="430" width="260" height="90" as="geometry" />
        </mxCell>
        <mxCell id="l7raoQd2dg0srGS7qnQP-27" style="edgeStyle=orthogonalEdgeStyle;rounded=0;orthogonalLoop=1;jettySize=auto;html=1;entryX=1;entryY=0.5;entryDx=0;entryDy=0;" edge="1" parent="1" source="DSx34_BCbyzCJCPrqBiv-2" target="DSx34_BCbyzCJCPrqBiv-3">
          <mxGeometry relative="1" as="geometry" />
        </mxCell>
        <mxCell id="DSx34_BCbyzCJCPrqBiv-2" value="router" style="rounded=0;whiteSpace=wrap;html=1;" parent="1" vertex="1">
          <mxGeometry x="380" y="960" width="120" height="60" as="geometry" />
        </mxCell>
        <mxCell id="l7raoQd2dg0srGS7qnQP-26" style="edgeStyle=orthogonalEdgeStyle;rounded=0;orthogonalLoop=1;jettySize=auto;html=1;exitX=0;exitY=0.5;exitDx=0;exitDy=0;entryX=0.5;entryY=1;entryDx=0;entryDy=0;" edge="1" parent="1" source="DSx34_BCbyzCJCPrqBiv-3" target="l7raoQd2dg0srGS7qnQP-23">
          <mxGeometry relative="1" as="geometry" />
        </mxCell>
        <mxCell id="DSx34_BCbyzCJCPrqBiv-3" value="API" style="whiteSpace=wrap;html=1;aspect=fixed;" parent="1" vertex="1">
          <mxGeometry x="210" y="950" width="80" height="80" as="geometry" />
        </mxCell>
        <mxCell id="l7raoQd2dg0srGS7qnQP-28" style="edgeStyle=orthogonalEdgeStyle;rounded=0;orthogonalLoop=1;jettySize=auto;html=1;entryX=1;entryY=0.5;entryDx=0;entryDy=0;" edge="1" parent="1" source="DSx34_BCbyzCJCPrqBiv-8" target="DSx34_BCbyzCJCPrqBiv-2">
          <mxGeometry relative="1" as="geometry" />
        </mxCell>
        <mxCell id="DSx34_BCbyzCJCPrqBiv-8" value="request" style="rounded=1;whiteSpace=wrap;html=1;" parent="1" vertex="1">
          <mxGeometry x="580" y="960" width="120" height="60" as="geometry" />
        </mxCell>
        <mxCell id="l7raoQd2dg0srGS7qnQP-1" value="api" style="rounded=0;whiteSpace=wrap;html=1;" vertex="1" parent="1">
          <mxGeometry x="-200" y="430" width="80" height="30" as="geometry" />
        </mxCell>
        <mxCell id="l7raoQd2dg0srGS7qnQP-2" value="inbound" style="rounded=0;whiteSpace=wrap;html=1;" vertex="1" parent="1">
          <mxGeometry x="-115" y="430" width="80" height="30" as="geometry" />
        </mxCell>
        <mxCell id="l7raoQd2dg0srGS7qnQP-3" value="sequence" style="rounded=0;whiteSpace=wrap;html=1;" vertex="1" parent="1">
          <mxGeometry x="-210" y="490" width="80" height="30" as="geometry" />
        </mxCell>
        <mxCell id="l7raoQd2dg0srGS7qnQP-4" value="&amp;lt;&amp;lt;mediator&amp;gt;&amp;gt;" style="rounded=0;whiteSpace=wrap;html=1;" vertex="1" parent="1">
          <mxGeometry x="-115" y="500" width="90" height="20" as="geometry" />
        </mxCell>
        <mxCell id="l7raoQd2dg0srGS7qnQP-6" value="domain" style="text;html=1;align=center;verticalAlign=middle;whiteSpace=wrap;rounded=0;" vertex="1" parent="1">
          <mxGeometry x="-165" y="400" width="90" height="50" as="geometry" />
        </mxCell>
        <mxCell id="l7raoQd2dg0srGS7qnQP-8" value="&amp;lt;&amp;lt;InboundMessageMediator&amp;gt;&amp;gt;" style="shape=trapezoid;perimeter=trapezoidPerimeter;whiteSpace=wrap;html=1;fixedSize=1;" vertex="1" parent="1">
          <mxGeometry x="-325" y="740" width="210" height="70" as="geometry" />
        </mxCell>
        <mxCell id="l7raoQd2dg0srGS7qnQP-15" style="edgeStyle=orthogonalEdgeStyle;rounded=0;orthogonalLoop=1;jettySize=auto;html=1;" edge="1" parent="1" source="l7raoQd2dg0srGS7qnQP-11" target="l7raoQd2dg0srGS7qnQP-8">
          <mxGeometry relative="1" as="geometry" />
        </mxCell>
        <mxCell id="l7raoQd2dg0srGS7qnQP-22" style="edgeStyle=orthogonalEdgeStyle;rounded=0;orthogonalLoop=1;jettySize=auto;html=1;exitX=0.5;exitY=1;exitDx=0;exitDy=0;entryX=0.5;entryY=0;entryDx=0;entryDy=0;" edge="1" parent="1" source="l7raoQd2dg0srGS7qnQP-11" target="l7raoQd2dg0srGS7qnQP-21">
          <mxGeometry relative="1" as="geometry" />
        </mxCell>
        <mxCell id="l7raoQd2dg0srGS7qnQP-11" value="" style="rounded=0;whiteSpace=wrap;html=1;" vertex="1" parent="1">
          <mxGeometry x="-210" y="580" width="130" height="50" as="geometry" />
        </mxCell>
        <mxCell id="l7raoQd2dg0srGS7qnQP-12" value="Mediation Service" style="text;html=1;align=center;verticalAlign=middle;whiteSpace=wrap;rounded=0;" vertex="1" parent="1">
          <mxGeometry x="-165" y="590" width="60" height="30" as="geometry" />
        </mxCell>
        <mxCell id="l7raoQd2dg0srGS7qnQP-21" value="&amp;lt;&amp;lt;APIMessageMediator&amp;gt;&amp;gt;" style="shape=trapezoid;perimeter=trapezoidPerimeter;whiteSpace=wrap;html=1;fixedSize=1;" vertex="1" parent="1">
          <mxGeometry x="-105" y="740" width="210" height="70" as="geometry" />
        </mxCell>
        <mxCell id="l7raoQd2dg0srGS7qnQP-24" style="edgeStyle=orthogonalEdgeStyle;rounded=0;orthogonalLoop=1;jettySize=auto;html=1;entryX=0.5;entryY=1;entryDx=0;entryDy=0;" edge="1" parent="1" source="l7raoQd2dg0srGS7qnQP-23" target="l7raoQd2dg0srGS7qnQP-8">
          <mxGeometry relative="1" as="geometry" />
        </mxCell>
        <mxCell id="l7raoQd2dg0srGS7qnQP-25" style="edgeStyle=orthogonalEdgeStyle;rounded=0;orthogonalLoop=1;jettySize=auto;html=1;exitX=0.5;exitY=0;exitDx=0;exitDy=0;entryX=0.5;entryY=1;entryDx=0;entryDy=0;" edge="1" parent="1" source="l7raoQd2dg0srGS7qnQP-23" target="l7raoQd2dg0srGS7qnQP-21">
          <mxGeometry relative="1" as="geometry">
            <mxPoint y="820" as="targetPoint" />
          </mxGeometry>
        </mxCell>
        <mxCell id="l7raoQd2dg0srGS7qnQP-23" value="MediationEngine" style="shape=trapezoid;perimeter=trapezoidPerimeter;whiteSpace=wrap;html=1;fixedSize=1;" vertex="1" parent="1">
          <mxGeometry x="-235" y="890" width="250" height="60" as="geometry" />
        </mxCell>
        <mxCell id="l7raoQd2dg0srGS7qnQP-29" value="d&amp;nbsp;" style="edgeStyle=none;orthogonalLoop=1;jettySize=auto;html=1;rounded=0;" edge="1" parent="1">
          <mxGeometry width="80" relative="1" as="geometry">
            <mxPoint x="-10" y="490" as="sourcePoint" />
            <mxPoint x="70" y="490" as="targetPoint" />
            <Array as="points" />
          </mxGeometry>
        </mxCell>
      </root>
    </mxGraphModel>
  </diagram>
</mxfile>
